<svg width="45" height="45" viewBox="0 0 45 45" fill="none" xmlns="http://www.w3.org/2000/svg">
<g clip-path="url(#clip0_49_2)">
<path d="M29.5312 -0.00012207C29.9121 -0.00012207 30.2417 0.139038 30.52 0.417358L44.5825 14.4799C44.8608 14.7582 45 15.0878 45 15.4686C45 15.8495 44.8608 16.1791 44.5825 16.4574L39.2432 21.7968C39.6094 22.163 39.9683 22.5145 40.3198 22.8514C40.6714 23.1884 40.979 23.5326 41.2427 23.8842C41.5063 24.2357 41.7261 24.6312 41.9019 25.0707C42.0776 25.5101 42.1655 26.0009 42.1655 26.5428C42.1655 27.1288 42.0557 27.6854 41.8359 28.2128C41.6162 28.7401 41.3159 29.2015 40.9351 29.597C40.5542 29.9926 40.1074 30.3075 39.5947 30.5419C39.082 30.7762 38.5327 30.9008 37.9468 30.9154C37.9175 31.516 37.793 32.0653 37.5732 32.5634C37.3535 33.0614 37.0605 33.5009 36.6943 33.8817C36.3281 34.2626 35.8887 34.5629 35.376 34.7826C34.8633 35.0023 34.314 35.1195 33.728 35.1342C33.7134 35.7201 33.5889 36.2694 33.3545 36.7821C33.1201 37.2948 32.8052 37.7416 32.4097 38.1224C32.0142 38.5033 31.5527 38.8109 31.0254 39.0453C30.498 39.2797 29.9414 39.3895 29.3555 39.3749C28.8867 39.3749 28.4106 39.2943 27.9272 39.1332C27.7661 39.5873 27.5537 39.9974 27.29 40.3636C27.0264 40.7299 26.7041 41.0521 26.3232 41.3304C25.9424 41.6088 25.5396 41.8212 25.1147 41.9677C24.6899 42.1141 24.2285 42.1874 23.7305 42.1874C23.3496 42.1874 23.0127 42.1581 22.7197 42.0995C22.4268 42.0409 22.1558 41.9384 21.9067 41.7919C21.6577 41.6454 21.4087 41.4843 21.1597 41.3085C20.9106 41.1327 20.6543 40.9203 20.3906 40.6713C19.8779 41.14 19.3799 41.5062 18.8965 41.7699C18.4131 42.0336 17.7979 42.1727 17.0508 42.1874C16.4648 42.1874 15.9082 42.0775 15.3809 41.8578C14.8535 41.6381 14.3921 41.3378 13.9966 40.9569C13.6011 40.5761 13.2861 40.1293 13.0518 39.6166C12.8174 39.1039 12.6929 38.5472 12.6782 37.9467C12.1069 37.932 11.5649 37.8148 11.0522 37.5951C10.5396 37.3754 10.0928 37.0751 9.71191 36.6942C9.33105 36.3134 9.03076 35.8666 8.81104 35.3539C8.59131 34.8412 8.47412 34.2992 8.45947 33.7279C7.87354 33.7133 7.33154 33.5961 6.8335 33.3763C6.33545 33.1566 5.896 32.8563 5.51514 32.4755C5.13428 32.0946 4.83398 31.6478 4.61426 31.1351C4.39453 30.6224 4.27002 30.0804 4.24072 29.5092C3.64014 29.4945 3.0835 29.37 2.5708 29.1356C2.05811 28.9012 1.61133 28.5863 1.23047 28.1908C0.849609 27.7953 0.549316 27.3412 0.32959 26.8285C0.109863 26.3158 0 25.7592 0 25.1586C0 24.558 0.109863 23.994 0.32959 23.4667C0.549316 22.9393 0.871582 22.4633 1.29639 22.0385L3.62549 19.6874L0.41748 16.4574C0.13916 16.1791 0 15.8495 0 15.4686C0 15.0878 0.13916 14.7582 0.41748 14.4799L14.48 0.417358C14.7583 0.139038 15.0879 -0.00012207 15.4688 -0.00012207C15.8496 -0.00012207 16.1792 0.139038 16.4575 0.417358L19.3579 3.31775C19.5483 3.25916 19.9146 3.13464 20.4565 2.94421C20.9985 2.75378 21.6357 2.54138 22.3682 2.30701C23.1006 2.07263 23.855 1.81628 24.6313 1.53796C25.4077 1.25964 26.1548 1.01062 26.8726 0.790894C27.5903 0.571167 28.1836 0.380737 28.6523 0.219604C29.1211 0.0584717 29.4141 -0.0147705 29.5312 -0.00012207ZM6.85547 21.0936C6.43066 21.0936 6.06445 21.2474 5.75684 21.5551L3.27393 24.016C2.96631 24.3236 2.8125 24.6971 2.8125 25.1366C2.8125 25.5761 2.95898 25.9423 3.25195 26.2352C3.54492 26.5282 3.91846 26.682 4.37256 26.6967C4.82666 26.6967 5.2002 26.5502 5.49316 26.2572L7.97607 23.7963C8.28369 23.4886 8.4375 23.1151 8.4375 22.6757C8.4375 22.2362 8.28369 21.8627 7.97607 21.5551C7.66846 21.2474 7.29492 21.0936 6.85547 21.0936ZM11.0742 25.3124C10.8691 25.3124 10.6714 25.349 10.481 25.4222C10.2905 25.4955 10.1147 25.6127 9.95361 25.7738L7.49268 28.2567C7.18506 28.5643 7.03125 28.9379 7.03125 29.3773C7.03125 29.8021 7.18506 30.161 7.49268 30.454C7.80029 30.7469 8.17383 30.9008 8.61328 30.9154C8.81836 30.9154 9.01611 30.8788 9.20654 30.8055C9.39697 30.7323 9.57275 30.6224 9.73389 30.476L12.1948 27.993C12.5024 27.6854 12.6562 27.3192 12.6562 26.8944C12.6562 26.455 12.5024 26.0814 12.1948 25.7738C11.8872 25.4662 11.5137 25.3124 11.0742 25.3124ZM15.293 29.5311C14.8682 29.5311 14.502 29.6849 14.1943 29.9926L11.7114 32.4535C11.4038 32.7611 11.25 33.1346 11.25 33.5741C11.25 34.0136 11.3965 34.3798 11.6895 34.6727C11.9824 34.9657 12.356 35.1195 12.8101 35.1342C13.2642 35.1342 13.6377 34.9877 13.9307 34.6947L16.4136 32.2338C16.7212 31.9261 16.875 31.5526 16.875 31.1132C16.875 30.6737 16.7212 30.3002 16.4136 29.9926C16.106 29.6849 15.7324 29.5311 15.293 29.5311ZM15.4688 37.8148C15.4688 38.2396 15.6226 38.5985 15.9302 38.8915C16.2378 39.1844 16.6113 39.3383 17.0508 39.3529C17.2559 39.3529 17.4536 39.3163 17.644 39.243C17.8345 39.1698 18.0103 39.0599 18.1714 38.9135L20.6323 36.4305C20.9399 36.1229 21.0938 35.7567 21.0938 35.3319C21.0938 34.8925 20.9399 34.5189 20.6323 34.2113C20.3247 33.9037 19.9512 33.7499 19.5117 33.7499C19.3066 33.7499 19.1089 33.7865 18.9185 33.8597C18.728 33.933 18.5522 34.0502 18.3911 34.2113L15.9302 36.6942C15.6226 37.0018 15.4688 37.3754 15.4688 37.8148ZM37.793 28.1249C38.2178 28.1249 38.584 27.9711 38.8916 27.6635C39.1992 27.3558 39.3604 26.9896 39.375 26.5648C39.375 26.1254 39.2212 25.7518 38.9136 25.4442L25.0269 11.5355C24.9829 11.4916 24.9097 11.455 24.8071 11.4257C24.7046 11.3964 24.6021 11.3671 24.4995 11.3378C24.397 11.3085 24.2871 11.2865 24.1699 11.2719C24.0527 11.2572 23.9648 11.2499 23.9062 11.2499C23.5254 11.2499 23.1665 11.3231 22.8296 11.4696C22.4927 11.6161 22.1924 11.8138 21.9287 12.0629C21.665 12.3119 21.46 12.6122 21.3135 12.9637C21.167 13.3153 21.0938 13.6815 21.0938 14.0624C21.0938 14.8387 20.9473 15.5638 20.6543 16.2377C20.3613 16.9115 19.9585 17.5121 19.4458 18.0394C18.9331 18.5668 18.3398 18.9696 17.666 19.2479C16.9922 19.5262 16.2598 19.6727 15.4688 19.6874C14.8828 19.6874 14.3335 19.5775 13.8208 19.3578C13.3081 19.1381 12.8613 18.8378 12.4805 18.4569C12.0996 18.076 11.7993 17.6293 11.5796 17.1166C11.3599 16.6039 11.25 16.0546 11.25 15.4686C11.25 15.1171 11.2866 14.7289 11.3599 14.3041C11.4331 13.8793 11.5503 13.4984 11.7114 13.1615L15.8203 4.92175C15.9521 4.68738 16.1499 4.49695 16.4136 4.35046L15.4688 3.40564L3.38379 15.4686L6.3501 18.413C7.00928 18.3397 7.63184 18.3837 8.21777 18.5448C8.80371 18.7059 9.31641 18.9769 9.75586 19.3578C10.1953 19.7386 10.5469 20.2001 10.8105 20.7421C11.0742 21.2841 11.2134 21.892 11.228 22.5658C11.814 22.5951 12.3633 22.7123 12.876 22.9174C13.3887 23.1224 13.8281 23.4154 14.1943 23.7963C14.5605 24.1771 14.8608 24.6166 15.0952 25.1146C15.3296 25.6127 15.4468 26.1693 15.4468 26.7845C16.0327 26.8138 16.582 26.931 17.0947 27.1361C17.6074 27.3412 18.0469 27.6342 18.4131 28.015C18.7793 28.3959 19.0796 28.8353 19.314 29.3334C19.5483 29.8314 19.6655 30.3881 19.6655 31.0033C20.2661 31.0326 20.8228 31.1571 21.3354 31.3768C21.8481 31.5966 22.2949 31.8969 22.6758 32.2777C23.0566 32.6586 23.3569 33.1127 23.5767 33.64C23.7964 34.1674 23.9062 34.7313 23.9062 35.3319C23.9062 35.9911 23.7744 36.6063 23.5107 37.1776C23.2471 37.7489 22.8662 38.2469 22.3682 38.6718C22.5879 38.8768 22.7856 39.0453 22.9614 39.1771C23.1372 39.309 23.3936 39.3749 23.7305 39.3749C24.1553 39.3749 24.5215 39.2211 24.8291 38.9135C25.1367 38.6058 25.2979 38.2396 25.3125 37.8148C25.3125 37.3754 25.1587 37.0018 24.8511 36.6942L26.8286 34.6947L28.2568 36.101C28.5937 36.4086 28.96 36.5624 29.3555 36.5624C29.7803 36.5624 30.1465 36.4086 30.4541 36.101C30.7617 35.7933 30.9229 35.4271 30.9375 35.0023C30.9375 34.5629 30.7837 34.1893 30.4761 33.8817L27.9932 31.3988L29.9927 29.4213L32.4536 31.8822C32.7612 32.1898 33.1348 32.3436 33.5742 32.3436C34.0137 32.3436 34.3872 32.1898 34.6948 31.8822C35.0024 31.5746 35.1562 31.2011 35.1562 30.7616C35.1562 30.3221 35.0024 29.9486 34.6948 29.641L32.2119 27.1801L34.2114 25.1805L36.6943 27.6635C37.002 27.9711 37.3682 28.1249 37.793 28.1249ZM41.5942 15.4686L29.1577 3.01013L18.0835 6.70154L14.2603 14.348C14.187 14.4799 14.1357 14.663 14.1064 14.8973C14.0771 15.1317 14.0625 15.3221 14.0625 15.4686C14.0625 15.8495 14.2017 16.1791 14.48 16.4574C14.7583 16.7357 15.0879 16.8749 15.4688 16.8749C15.8643 16.8749 16.2305 16.8016 16.5674 16.6552C16.9043 16.5087 17.1973 16.3109 17.4463 16.0619C17.6953 15.8129 17.9004 15.5126 18.0615 15.161C18.2227 14.8094 18.2959 14.4432 18.2812 14.0624C18.2812 13.286 18.4277 12.5609 18.7207 11.8871C19.0137 11.2133 19.4165 10.6127 19.9292 10.0853C20.4419 9.55798 21.0352 9.15515 21.709 8.87683C22.3828 8.59851 23.1152 8.45203 23.9062 8.43738C24.1406 8.43738 24.3896 8.45935 24.6533 8.5033C24.917 8.54724 25.1953 8.60584 25.4883 8.67908C25.7812 8.75232 26.0376 8.85486 26.2573 8.98669C26.4771 9.11853 26.6895 9.27234 26.8945 9.44812L37.2656 19.8192L41.5942 15.4686Z" fill="#166FD3"/>
</g>
<defs>
<clipPath id="clip0_49_2">
<rect width="45" height="45" fill="white"/>
</clipPath>
</defs>
</svg>
