<svg width="221" height="133" viewBox="0 0 221 133" fill="none" xmlns="http://www.w3.org/2000/svg">
<path d="M1.37552 3C2.1352 3 2.75104 2.32843 2.75104 1.5C2.75104 0.671573 2.1352 0 1.37552 0C0.615841 0 0 0.671573 0 1.5C0 2.32843 0.615841 3 1.37552 3Z" fill="#9FA9FF"/>
<path d="M1.37552 24C2.1352 24 2.75104 23.3284 2.75104 22.5C2.75104 21.6716 2.1352 21 1.37552 21C0.615841 21 0 21.6716 0 22.5C0 23.3284 0.615841 24 1.37552 24Z" fill="#9FA9FF"/>
<path d="M1.37552 45C2.1352 45 2.75104 44.3284 2.75104 43.5C2.75104 42.6716 2.1352 42 1.37552 42C0.615841 42 0 42.6716 0 43.5C0 44.3284 0.615841 45 1.37552 45Z" fill="#9FA9FF"/>
<path d="M1.37552 66C2.1352 66 2.75104 65.3284 2.75104 64.5C2.75104 63.6716 2.1352 63 1.37552 63C0.615841 63 0 63.6716 0 64.5C0 65.3284 0.615841 66 1.37552 66Z" fill="#9FA9FF"/>
<path d="M1.37552 87C2.1352 87 2.75104 86.328 2.75104 85.5C2.75104 84.672 2.1352 84 1.37552 84C0.615841 84 0 84.672 0 85.5C0 86.328 0.615841 87 1.37552 87Z" fill="#9FA9FF"/>
<path d="M1.37552 108C2.1352 108 2.75104 107.328 2.75104 106.5C2.75104 105.672 2.1352 105 1.37552 105C0.615841 105 0 105.672 0 106.5C0 107.328 0.615841 108 1.37552 108Z" fill="#9FA9FF"/>
<path d="M24.3013 3C25.061 3 25.6768 2.32843 25.6768 1.5C25.6768 0.671573 25.061 0 24.3013 0C23.5416 0 22.9258 0.671573 22.9258 1.5C22.9258 2.32843 23.5416 3 24.3013 3Z" fill="#9FA9FF"/>
<path d="M24.3013 24C25.061 24 25.6768 23.3284 25.6768 22.5C25.6768 21.6716 25.061 21 24.3013 21C23.5416 21 22.9258 21.6716 22.9258 22.5C22.9258 23.3284 23.5416 24 24.3013 24Z" fill="#9FA9FF"/>
<path d="M24.3013 45C25.061 45 25.6768 44.3284 25.6768 43.5C25.6768 42.6716 25.061 42 24.3013 42C23.5416 42 22.9258 42.6716 22.9258 43.5C22.9258 44.3284 23.5416 45 24.3013 45Z" fill="#9FA9FF"/>
<path d="M24.3013 66C25.061 66 25.6768 65.3284 25.6768 64.5C25.6768 63.6716 25.061 63 24.3013 63C23.5416 63 22.9258 63.6716 22.9258 64.5C22.9258 65.3284 23.5416 66 24.3013 66Z" fill="#9FA9FF"/>
<path d="M24.3013 87C25.061 87 25.6768 86.328 25.6768 85.5C25.6768 84.672 25.061 84 24.3013 84C23.5416 84 22.9258 84.672 22.9258 85.5C22.9258 86.328 23.5416 87 24.3013 87Z" fill="#9FA9FF"/>
<path d="M24.3013 108C25.061 108 25.6768 107.328 25.6768 106.5C25.6768 105.672 25.061 105 24.3013 105C23.5416 105 22.9258 105.672 22.9258 106.5C22.9258 107.328 23.5416 108 24.3013 108Z" fill="#9FA9FF"/>
<path d="M47.2271 3C47.9867 3 48.6026 2.32843 48.6026 1.5C48.6026 0.671573 47.9867 0 47.2271 0C46.4674 0 45.8516 0.671573 45.8516 1.5C45.8516 2.32843 46.4674 3 47.2271 3Z" fill="#9FA9FF"/>
<path d="M47.2271 24C47.9867 24 48.6026 23.3284 48.6026 22.5C48.6026 21.6716 47.9867 21 47.2271 21C46.4674 21 45.8516 21.6716 45.8516 22.5C45.8516 23.3284 46.4674 24 47.2271 24Z" fill="#9FA9FF"/>
<path d="M47.2271 45C47.9867 45 48.6026 44.3284 48.6026 43.5C48.6026 42.6716 47.9867 42 47.2271 42C46.4674 42 45.8516 42.6716 45.8516 43.5C45.8516 44.3284 46.4674 45 47.2271 45Z" fill="#9FA9FF"/>
<path d="M47.2271 66C47.9867 66 48.6026 65.3284 48.6026 64.5C48.6026 63.6716 47.9867 63 47.2271 63C46.4674 63 45.8516 63.6716 45.8516 64.5C45.8516 65.3284 46.4674 66 47.2271 66Z" fill="#9FA9FF"/>
<path d="M47.2271 87C47.9867 87 48.6026 86.328 48.6026 85.5C48.6026 84.672 47.9867 84 47.2271 84C46.4674 84 45.8516 84.672 45.8516 85.5C45.8516 86.328 46.4674 87 47.2271 87Z" fill="#9FA9FF"/>
<path d="M47.2271 108C47.9867 108 48.6026 107.328 48.6026 106.5C48.6026 105.672 47.9867 105 47.2271 105C46.4674 105 45.8516 105.672 45.8516 106.5C45.8516 107.328 46.4674 108 47.2271 108Z" fill="#9FA9FF"/>
<path d="M70.1509 3C70.9102 3 71.5264 2.32843 71.5264 1.5C71.5264 0.671573 70.9102 0 70.1509 0C69.3916 0 68.7754 0.671573 68.7754 1.5C68.7754 2.32843 69.3916 3 70.1509 3Z" fill="#9FA9FF"/>
<path d="M70.1509 24C70.9102 24 71.5264 23.3284 71.5264 22.5C71.5264 21.6716 70.9102 21 70.1509 21C69.3916 21 68.7754 21.6716 68.7754 22.5C68.7754 23.3284 69.3916 24 70.1509 24Z" fill="#9FA9FF"/>
<path d="M70.1509 45C70.9102 45 71.5264 44.3284 71.5264 43.5C71.5264 42.6716 70.9102 42 70.1509 42C69.3916 42 68.7754 42.6716 68.7754 43.5C68.7754 44.3284 69.3916 45 70.1509 45Z" fill="#9FA9FF"/>
<path d="M70.1509 66C70.9102 66 71.5264 65.3284 71.5264 64.5C71.5264 63.6716 70.9102 63 70.1509 63C69.3916 63 68.7754 63.6716 68.7754 64.5C68.7754 65.3284 69.3916 66 70.1509 66Z" fill="#9FA9FF"/>
<path d="M70.1509 87C70.9102 87 71.5264 86.328 71.5264 85.5C71.5264 84.672 70.9102 84 70.1509 84C69.3916 84 68.7754 84.672 68.7754 85.5C68.7754 86.328 69.3916 87 70.1509 87Z" fill="#9FA9FF"/>
<path d="M70.1509 108C70.9102 108 71.5264 107.328 71.5264 106.5C71.5264 105.672 70.9102 105 70.1509 105C69.3916 105 68.7754 105.672 68.7754 106.5C68.7754 107.328 69.3916 108 70.1509 108Z" fill="#9FA9FF"/>
<path d="M93.0767 3C93.836 3 94.4522 2.32843 94.4522 1.5C94.4522 0.671573 93.836 0 93.0767 0C92.3174 0 91.7012 0.671573 91.7012 1.5C91.7012 2.32843 92.3174 3 93.0767 3Z" fill="#9FA9FF"/>
<path d="M93.0767 24C93.836 24 94.4522 23.3284 94.4522 22.5C94.4522 21.6716 93.836 21 93.0767 21C92.3174 21 91.7012 21.6716 91.7012 22.5C91.7012 23.3284 92.3174 24 93.0767 24Z" fill="#9FA9FF"/>
<path d="M93.0767 45C93.836 45 94.4522 44.3284 94.4522 43.5C94.4522 42.6716 93.836 42 93.0767 42C92.3174 42 91.7012 42.6716 91.7012 43.5C91.7012 44.3284 92.3174 45 93.0767 45Z" fill="#9FA9FF"/>
<path d="M93.0767 66C93.836 66 94.4522 65.3284 94.4522 64.5C94.4522 63.6716 93.836 63 93.0767 63C92.3174 63 91.7012 63.6716 91.7012 64.5C91.7012 65.3284 92.3174 66 93.0767 66Z" fill="#9FA9FF"/>
<path d="M93.0767 87C93.836 87 94.4522 86.328 94.4522 85.5C94.4522 84.672 93.836 84 93.0767 84C92.3174 84 91.7012 84.672 91.7012 85.5C91.7012 86.328 92.3174 87 93.0767 87Z" fill="#9FA9FF"/>
<path d="M93.0767 108C93.836 108 94.4522 107.328 94.4522 106.5C94.4522 105.672 93.836 105 93.0767 105C92.3174 105 91.7012 105.672 91.7012 106.5C91.7012 107.328 92.3174 108 93.0767 108Z" fill="#9FA9FF"/>
<path d="M116.002 3C116.762 3 117.378 2.32843 117.378 1.5C117.378 0.671573 116.762 0 116.002 0C115.243 0 114.627 0.671573 114.627 1.5C114.627 2.32843 115.243 3 116.002 3Z" fill="#9FA9FF"/>
<path d="M116.002 24C116.762 24 117.378 23.3284 117.378 22.5C117.378 21.6716 116.762 21 116.002 21C115.243 21 114.627 21.6716 114.627 22.5C114.627 23.3284 115.243 24 116.002 24Z" fill="#9FA9FF"/>
<path d="M116.002 45C116.762 45 117.378 44.3284 117.378 43.5C117.378 42.6716 116.762 42 116.002 42C115.243 42 114.627 42.6716 114.627 43.5C114.627 44.3284 115.243 45 116.002 45Z" fill="#9FA9FF"/>
<path d="M116.002 66C116.762 66 117.378 65.3284 117.378 64.5C117.378 63.6716 116.762 63 116.002 63C115.243 63 114.627 63.6716 114.627 64.5C114.627 65.3284 115.243 66 116.002 66Z" fill="#9FA9FF"/>
<path d="M116.002 87C116.762 87 117.378 86.328 117.378 85.5C117.378 84.672 116.762 84 116.002 84C115.243 84 114.627 84.672 114.627 85.5C114.627 86.328 115.243 87 116.002 87Z" fill="#9FA9FF"/>
<path d="M116.002 108C116.762 108 117.378 107.328 117.378 106.5C117.378 105.672 116.762 105 116.002 105C115.243 105 114.627 105.672 114.627 106.5C114.627 107.328 115.243 108 116.002 108Z" fill="#9FA9FF"/>
<path d="M138.928 3C139.688 3 140.304 2.32843 140.304 1.5C140.304 0.671573 139.688 0 138.928 0C138.169 0 137.553 0.671573 137.553 1.5C137.553 2.32843 138.169 3 138.928 3Z" fill="#9FA9FF"/>
<path d="M138.928 24C139.688 24 140.304 23.3284 140.304 22.5C140.304 21.6716 139.688 21 138.928 21C138.169 21 137.553 21.6716 137.553 22.5C137.553 23.3284 138.169 24 138.928 24Z" fill="#9FA9FF"/>
<path d="M138.928 45C139.688 45 140.304 44.3284 140.304 43.5C140.304 42.6716 139.688 42 138.928 42C138.169 42 137.553 42.6716 137.553 43.5C137.553 44.3284 138.169 45 138.928 45Z" fill="#9FA9FF"/>
<path d="M138.928 66C139.688 66 140.304 65.3284 140.304 64.5C140.304 63.6716 139.688 63 138.928 63C138.169 63 137.553 63.6716 137.553 64.5C137.553 65.3284 138.169 66 138.928 66Z" fill="#9FA9FF"/>
<path d="M138.928 87C139.688 87 140.304 86.328 140.304 85.5C140.304 84.672 139.688 84 138.928 84C138.169 84 137.553 84.672 137.553 85.5C137.553 86.328 138.169 87 138.928 87Z" fill="#9FA9FF"/>
<path d="M138.928 108C139.688 108 140.304 107.328 140.304 106.5C140.304 105.672 139.688 105 138.928 105C138.169 105 137.553 105.672 137.553 106.5C137.553 107.328 138.169 108 138.928 108Z" fill="#9FA9FF"/>
<path d="M161.852 3C162.611 3 163.228 2.32843 163.228 1.5C163.228 0.671573 162.611 0 161.852 0C161.093 0 160.477 0.671573 160.477 1.5C160.477 2.32843 161.093 3 161.852 3Z" fill="#9FA9FF"/>
<path d="M161.852 24C162.611 24 163.228 23.3284 163.228 22.5C163.228 21.6716 162.611 21 161.852 21C161.093 21 160.477 21.6716 160.477 22.5C160.477 23.3284 161.093 24 161.852 24Z" fill="#9FA9FF"/>
<path d="M161.852 45C162.611 45 163.228 44.3284 163.228 43.5C163.228 42.6716 162.611 42 161.852 42C161.093 42 160.477 42.6716 160.477 43.5C160.477 44.3284 161.093 45 161.852 45Z" fill="#9FA9FF"/>
<path d="M161.852 66C162.611 66 163.228 65.3284 163.228 64.5C163.228 63.6716 162.611 63 161.852 63C161.093 63 160.477 63.6716 160.477 64.5C160.477 65.3284 161.093 66 161.852 66Z" fill="#9FA9FF"/>
<path d="M161.852 87C162.611 87 163.228 86.328 163.228 85.5C163.228 84.672 162.611 84 161.852 84C161.093 84 160.477 84.672 160.477 85.5C160.477 86.328 161.093 87 161.852 87Z" fill="#9FA9FF"/>
<path d="M161.852 108C162.611 108 163.228 107.328 163.228 106.5C163.228 105.672 162.611 105 161.852 105C161.093 105 160.477 105.672 160.477 106.5C160.477 107.328 161.093 108 161.852 108Z" fill="#9FA9FF"/>
</svg>
