<svg width="72" height="66" viewBox="0 0 72 66" fill="none" xmlns="http://www.w3.org/2000/svg">
<path opacity="0.3" d="M0 54.9861L23.7143 42.6121L46.7229 52.9239L22.6416 64.9077L0 54.9861Z" fill="url(#paint0_linear_87_207)"/>
<path d="M69.1939 25.2772L46.7499 53.0074L23.4025 42.8906L23.1484 11.3425L69.1939 16.9164V25.2772Z" fill="url(#paint1_linear_87_207)"/>
<path d="M46.752 53.0077V22.9366L68.2643 11.9282L69.7323 12.0397L69.7889 41.5534L46.752 53.0077Z" fill="url(#paint2_linear_87_207)"/>
<path d="M23.0625 11.315L45.8452 0L69.7289 12.0396L46.7486 23.4939L23.0625 11.315Z" fill="url(#paint3_linear_87_207)"/>
<defs>
<linearGradient id="paint0_linear_87_207" x1="36.3477" y1="52.3855" x2="14.844" y2="62.2526" gradientUnits="userSpaceOnUse">
<stop offset="0.00502513" stop-color="#5298EF"/>
<stop offset="1" stop-color="#73B0F1" stop-opacity="0"/>
</linearGradient>
<linearGradient id="paint1_linear_87_207" x1="23.1566" y1="32.1694" x2="69.2062" y2="32.1694" gradientUnits="userSpaceOnUse">
<stop stop-color="#6DACEF"/>
<stop offset="1" stop-color="#97C9FE"/>
</linearGradient>
<linearGradient id="paint2_linear_87_207" x1="54.6835" y1="41.8534" x2="67.5131" y2="31.0476" gradientUnits="userSpaceOnUse">
<stop offset="0.00337838" stop-color="#8EBEF4"/>
<stop offset="1" stop-color="#B4D8FA"/>
</linearGradient>
<linearGradient id="paint3_linear_87_207" x1="23.0602" y1="11.7447" x2="69.7353" y2="11.7447" gradientUnits="userSpaceOnUse">
<stop stop-color="#97C3F4"/>
<stop offset="1" stop-color="#E8F1FA"/>
</linearGradient>
</defs>
</svg>
